<?xml version="1.0" encoding="utf-8"?>
<!-- Generator: Adobe Illustrator 19.2.1, SVG Export Plug-In . SVG Version: 6.00 Build 0)  -->
<svg version="1.1" xmlns="http://www.w3.org/2000/svg" xmlns:xlink="http://www.w3.org/1999/xlink" x="0px" y="0px"
	 viewBox="0 0 100 100" style="enable-background:new 0 0 100 100;" xml:space="preserve">
<style type="text/css">
	.st0{display:none;fill:#363644;}
	.st1{fill:#FFFFFF;stroke:#F2F2F2;stroke-miterlimit:10;}
	.st2{display:none;}
	.st3{display:inline;}
	.st4{fill:#F2F2F2;stroke:#E6E6E6;stroke-width:0.5;stroke-miterlimit:10;}
	.st5{fill:#FFFFFF;stroke:#E6E6E6;stroke-width:0.5;stroke-miterlimit:10;}
	.st6{fill:#4D4D4D;}
	.st7{fill:#7AC943;}
	.st8{fill:#FFFFFF;stroke:#CCCCCC;stroke-width:0.5;stroke-miterlimit:10;}
	.st9{fill:#3FA9F5;}
	.st10{fill:#CCCCCC;}
	.st11{fill:#FF5A66;}
	.st12{fill:#FF931E;}
	.st13{fill:#F2F2F2;}
	.st14{fill:#FFFFFF;stroke:#808080;stroke-width:0.5;stroke-miterlimit:10;}
	.st15{opacity:0.8;fill:#F7DCBF;}
	.st16{fill:#FFEEDC;}
	.st17{fill:#E6E6E6;}
	.st18{fill:#333333;}
	.st19{fill:#FFFFFF;}
	.st20{fill:none;stroke:#808080;stroke-width:0.2;stroke-miterlimit:10;}
	.st21{fill:#FFFFFF;stroke:#333333;stroke-miterlimit:10;}
	.st22{fill:none;stroke:#333333;stroke-width:0.5;stroke-miterlimit:10;}
	.st23{fill:#F2F2F2;stroke:#CCCCCC;stroke-width:0.25;stroke-miterlimit:10;}
	.st24{fill:#666666;}
	.st25{opacity:0.8;fill:#F2F2F2;}
	.st26{opacity:0.4;fill:#E6E6E6;}
	.st27{fill:#FFFFFF;stroke:#7AC943;stroke-width:0.5;stroke-miterlimit:10;}
	.st28{fill:none;stroke:#7AC943;stroke-miterlimit:10;}
	.st29{fill:none;stroke:#7AC943;stroke-miterlimit:10;stroke-dasharray:8.1052,8.1052;}
	.st30{fill:none;stroke:#7AC943;stroke-miterlimit:10;stroke-dasharray:8.5961,8.5961;}
	.st31{fill:none;stroke:#7AC943;stroke-miterlimit:10;stroke-dasharray:6.7532,6.7532;}
	.st32{fill:none;stroke:#7AC943;stroke-miterlimit:10;stroke-dasharray:8.416,8.416;}
	.st33{fill:none;stroke:#7AC943;stroke-miterlimit:10;stroke-dasharray:7.9932,7.9932;}
	.st34{display:inline;fill:none;stroke:#7AC943;stroke-width:0.5;stroke-miterlimit:10;}
	.st35{fill-rule:evenodd;clip-rule:evenodd;fill:#181616;}
	.st36{fill:none;stroke:#CCCCCC;stroke-width:0.5;stroke-miterlimit:10;}
	.st37{opacity:0.6;fill:#F2F2F2;}
	.st38{fill:#F2F2F2;stroke:#808080;stroke-width:0.5;stroke-miterlimit:10;}
	.st39{display:none;opacity:1.000000e-02;fill:#FFFFFF;}
	.st40{opacity:1.000000e-02;fill:none;}
	.st41{fill:none;stroke:#FFFFFF;stroke-width:2;stroke-miterlimit:10;}
	.st42{display:none;fill:#FFFFFF;}
	.st43{display:none;opacity:1.000000e-02;fill:none;stroke:#FFFFFF;stroke-miterlimit:10;}
</style>
<g id="Layer_1">
	<rect x="38.8" y="-31" class="st0" width="718.2" height="520"/>
	<g>
		<path class="st9" d="M83.4,73.7c6.1-4.8,9.9-11.5,9.9-18.9c0-4.6-1.3-12.1-9-19.8c2.3,3.9,3.6,8.3,3.6,13
			c0,16.4-19.2,29.6-39,29.6c-2.9,0-5.8-0.3-8.5-0.9c5.8,4.2,11.4,4.7,19.9,4.7c4.4,0,8.5-0.7,12.4-1.9c7,4.8,16.4,3.7,16.4,3.7
			S80.9,77.2,83.4,73.7z"/>
		<path class="st9" d="M82.3,44c0-15.7-16.4-28.5-36.6-28.5S9.1,28.3,9.1,44c0,6.8,3.1,13,8.2,17.9C17,70.4,5.7,77.9,5.7,77.9
			s21.3-5.4,21.9-9.1c0,0,11.5,3.7,18,3.7C65.9,72.5,82.3,59.8,82.3,44z"/>
	</g>
</g>
<g id="Layer_2" class="st2">
</g>
</svg>
